<svg width="104" height="39" viewBox="0 0 104 39" fill="none" xmlns="http://www.w3.org/2000/svg">
<g clip-path="url(#clip0_1541_3070)">
<path d="M10.1159 8.9265C14.5047 4.5441 20.9695 3.4393 26.3695 5.6593C27.5639 6.1025 28.6055 6.7337 29.4175 7.3201L24.9087 9.4009C20.7103 7.6409 15.9007 8.8385 12.9655 11.7713C9.05753 15.6721 8.21913 22.3929 12.6319 26.8377L12.8431 27.0513L0.142334 38.3873C0.947934 37.2785 1.94793 36.2313 2.94473 35.1841C5.75673 32.2313 8.54873 29.3049 6.84633 25.1681C4.56633 19.6321 5.89353 13.1457 10.1159 8.9265ZM39.8455 0.4761C35.6639 6.2297 33.6231 9.0433 35.2615 16.0825L35.2503 16.0721C36.3807 20.8641 35.1727 26.1777 31.2711 30.0761C26.3527 34.9937 18.4815 36.0881 11.9999 31.6617L16.5199 29.5713C20.6559 31.1945 25.1823 30.4817 28.4351 27.2313C31.6879 23.9809 32.4191 19.2473 30.7839 15.3081C30.4727 14.5609 29.5407 14.3737 28.8887 14.8537L15.5871 24.6665L34.6399 5.5441V5.5609L40.1423 0.0625C40.0431 0.2017 39.9442 0.339566 39.8455 0.4761ZM56.5855 9.4001C60.9239 9.4001 64.0991 11.6185 64.8487 15.7465H61.5175C61.0271 13.3993 59.0647 12.0833 56.5855 12.0833C52.5839 12.0833 50.8279 15.5401 50.8279 19.0753C50.8279 22.6089 52.5839 26.0409 56.5855 26.0409C60.4071 26.0409 62.0855 23.2809 62.2151 20.9841H56.4559V18.3129H65.1575L65.1431 19.7089C65.1431 24.8993 63.0239 28.6009 56.4767 28.6009C50.9159 28.6001 47.5999 24.5705 47.5999 19.0745C47.5999 13.5281 51.0343 9.4001 56.5855 9.4001ZM82.4423 14.5857C86.8055 14.5857 89.1295 17.6305 89.1295 21.5777C89.1295 25.4993 86.8055 28.5697 82.4423 28.5697C78.1047 28.5697 75.7543 25.4993 75.7543 21.5777C75.7543 17.6305 78.1039 14.5857 82.4423 14.5857ZM75.3023 17.3985H70.5511V28.2601H67.6335V17.0361L70.0863 14.9209H75.3023V17.3985ZM94.2087 21.9961L100.38 14.9209H103.917L98.3655 20.9841L103.969 28.2601H100.483L95.9447 22.0081L94.2087 21.9961ZM94.2087 21.9961V28.2601H91.2903V9.8385H94.2087V21.9961ZM82.4423 16.9849C80.4535 16.9849 78.8015 18.5337 78.8015 21.5777C78.8015 24.6217 80.4543 26.1441 82.4423 26.1441C84.4559 26.1441 86.0823 24.6217 86.0831 21.5777C86.0831 18.5337 84.4559 16.9857 82.4423 16.9849Z" fill="black" style="fill:black;fill-opacity:1;"/>
</g>
<defs>
<clipPath id="clip0_1541_3070">
<rect width="104" height="39" fill="white" style="fill:white;fill-opacity:1;"/>
</clipPath>
</defs>
</svg>
